PathFileType	4	(X/Y/Z)	/Users/itak/Documents/Research/Walk-IL/dataset/trc/00503_00183.trc
DataRate	CameraRate	NumFrames	NumMarkers	Units	OrigDataRate	OrigDataStartFrame	OrigNumFrames
100.000000	100.000000	4	53	mm	100.000000	530	707
Frame#	Time	RPSI			LPSI			L3			STRN			T10			C7			CLAV			RBAK			LBAK			LSHO			LUPA			LAEL			LAOL			LWTS			LWPS			LFRA			LIFD			LHPS			LHTS			RSHO			RUPA			RAEL			RAOL			RWTS			RWPS			RFRA			RIFD			RHTS			RHPS			RBHD			LFHD			RFHD			LBHD			LHIP			RHIP			RASI			LASI			LKNE			LTHI			LANK			LTIP			LTOE			LMT1			LMT5			LHEE			RKNE			RTHI			RANK			RTIP			RTOE			RMT1			RMT5			RHEE			
		X1	Y1	Z1	X2	Y2	Z2	X3	Y3	Z3	X4	Y4	Z4	X5	Y5	Z5	X6	Y6	Z6	X7	Y7	Z7	X8	Y8	Z8	X9	Y9	Z9	X10	Y10	Z10	X11	Y11	Z11	X12	Y12	Z12	X13	Y13	Z13	X14	Y14	Z14	X15	Y15	Z15	X16	Y16	Z16	X17	Y17	Z17	X18	Y18	Z18	X19	Y19	Z19	X20	Y20	Z20	X21	Y21	Z21	X22	Y22	Z22	X23	Y23	Z23	X24	Y24	Z24	X25	Y25	Z25	X26	Y26	Z26	X27	Y27	Z27	X28	Y28	Z28	X29	Y29	Z29	X30	Y30	Z30	X31	Y31	Z31	X32	Y32	Z32	X33	Y33	Z33	X34	Y34	Z34	X35	Y35	Z35	X36	Y36	Z36	X37	Y37	Z37	X38	Y38	Z38	X39	Y39	Z39	X40	Y40	Z40	X41	Y41	Z41	X42	Y42	Z42	X43	Y43	Z43	X44	Y44	Z44	X45	Y45	Z45	X46	Y46	Z46	X47	Y47	Z47	X48	Y48	Z48	X49	Y49	Z49	X50	Y50	Z50	X51	Y51	Z51	X52	Y52	Z52	X53	Y53	Z53	

531	5.3	442.1943054199219	965.0807495117188	314.2662353515625	507.3462524414062	961.8768310546875	208.3778686523438	473.0815734863281	1031.920288085938	264.9090270996094	667.613525390625	1188.296752929688	364.7817993164062	456.0887451171875	1135.344604492188	267.6152954101562	495.8924560546875	1364.42236328125	293.0693664550781	636.736328125	1284.114868164062	351.8778686523438	416.6709289550781	1242.267822265625	350.9672546386719	507.7086181640625	1312.52587890625	201.3794403076172	625.4780883789062	1356.585571289062	174.4578704833984	641.4207763671875	1233.174194335938	109.9877471923828	664.2264404296875	1023.966430664062	86.24888610839844	568.3056030273438	1013.997924804688	110.5906677246094	725.2525634765625	836.92333984375	158.7455139160156	679.4905395507812	800.9176025390625	84.50941467285156	680.9308471679688	940.9497680664062	90.58812713623047	728.2924194335938	679.8959350585938	167.8832550048828	699.5584716796875	747.3140258789062	100.5052337646484	744.6887817382812	759.5997924804688	146.2587738037109	489.0364074707031	1355.75537109375	451.3514099121094	450.6637573242188	1289.012817382812	497.7803649902344	434.6665954589844	1021.498596191406	539.2796020507812	401.6802978515625	1006.637634277344	483.4387512207031	533.7490234375	814.9479370117188	547.75146484375	445.2687072753906	796.59423828125	560.8693237304688	434.9197998046875	967.2342529296875	547.0882568359375	528.4924926757812	655.4925537109375	545.3382568359375	534.5652465820312	720.6101684570312	573.3790893554688	463.2329406738281	721.5110473632812	568.7252197265625	507.4834594726562	1526.111450195312	377.2276000976562	677.2781982421875	1570.677734375	281.1600646972656	631.8240356445312	1583.611083984375	398.8367614746094	551.7197875976562	1505.718627929688	225.7480316162109	669.4140625	887.5654907226562	157.5934906005859	456.9240112304688	860.6536865234375	472.8700256347656	581.7105102539062	897.8654174804688	473.6573181152344	705.090576171875	917.9876098632812	266.2250366210938	730.66748046875	476.571533203125	253.6992950439453	720.20166015625	629.2830200195312	210.6478881835938	703.2915649414062	42.45784378051758	252.0201110839844	734.631591796875	321.0249328613281	251.2348480224609	839.4605712890625	44.93532943725586	404.5957641601562	759.7339477539062	43.39401626586914	392.8429565429688	800.1959838867188	37.95282745361328	299.0879821777344	633.4044799804688	41.60163116455078	286.4223937988281	428.789306640625	481.1964721679688	421.9479370117188	467.6290283203125	729.492919921875	478.2861022949219	184.5725250244141	127.2618408203125	299.4055786132812	378.3142700195312	346.8667297363281	389.54931640625	346.1298217773438	36.35008239746094	332.435546875	319.2031860351562	59.84614944458008	273.4335021972656	259.9887084960938	57.53361129760742	349.8712463378906	163.9239959716797	152.8956604003906	237.1886444091797	
532	5.31	448.1314697265625	965.9172973632812	314.0704956054688	513.6306762695312	962.7402954101562	208.3781127929688	479.2451477050781	1032.640502929688	264.8695373535156	673.162109375	1189.202392578125	365.3877868652344	462.1255493164062	1135.989624023438	267.5501708984375	501.2342834472656	1365.121459960938	293.3283081054688	642.1171875	1284.996826171875	352.4970092773438	422.1432189941406	1242.730102539062	350.8494567871094	513.4603271484375	1313.392700195312	201.5813751220703	631.23974609375	1357.702270507812	175.1748657226562	647.7048950195312	1234.390014648438	110.6332473754883	670.9444580078125	1025.249633789062	86.77529144287109	574.9619750976562	1015.097351074219	110.7351608276367	731.973388671875	838.3208618164062	159.1698913574219	686.4014892578125	801.9619140625	84.99493408203125	687.7521362304688	942.2409057617188	91.08999633789062	735.1217041015625	681.3342895507812	169.1070404052734	706.4434204101562	748.3943481445312	101.2967910766602	751.4784545898438	760.937255859375	147.1152801513672	493.9408874511719	1356.26904296875	451.5658874511719	455.5158386230469	1289.445190429688	497.8051452636719	439.8224182128906	1021.904418945312	539.2250366210938	407.1964721679688	1006.920715332031	483.1631774902344	539.7713012695312	815.90576171875	548.5162353515625	451.3484802246094	797.0283203125	561.0790405273438	440.194091796875	967.6361694335938	547.0680541992188	535.6174926757812	656.4595947265625	546.234619140625	540.9901123046875	721.6185302734375	574.2644653320312	469.8217163085938	722.1096801757812	568.9143676757812	512.3426513671875	1526.850952148438	377.5151977539062	682.0907592773438	1571.623046875	281.4486694335938	636.528076171875	1584.6240234375	399.0861206054688	556.5013427734375	1506.200805664062	226.2075805664062	675.4396362304688	888.1326904296875	157.7359008789062	462.6765747070312	861.6119995117188	472.8336181640625	587.5218505859375	898.8588256835938	473.8781127929688	711.1398315429688	918.6024780273438	266.6117553710938	733.99853515625	476.3095703125	253.6705627441406	724.7991943359375	629.3004760742188	210.8551483154297	703.529541015625	42.42332458496094	252.0570068359375	736.822509765625	320.6865234375	251.2311401367188	839.896484375	43.93854141235352	404.8714904785156	760.0830078125	43.16947937011719	392.8329162597656	800.517333984375	37.4246826171875	299.2247924804688	633.5775756835938	41.73633575439453	286.4027404785156	436.6539611816406	481.6188659667969	425.1806030273438	473.7645874023438	730.5302124023438	478.9193725585938	187.7655334472656	131.4566040039062	302.1706237792969	385.0160522460938	348.0660095214844	393.175537109375	346.9577941894531	36.03394317626953	332.9971923828125	320.6835021972656	61.33509063720703	274.6952209472656	261.5296325683594	58.84320449829102	351.1624755859375	167.7287292480469	158.5838165283203	240.4505004882812	
533	5.32	453.9438171386719	966.7418823242188	313.8662109375	519.7560424804688	963.5589599609375	208.3644256591797	485.2921447753906	1033.346435546875	264.8074340820312	678.6133422851562	1190.065063476562	365.9764404296875	468.0557250976562	1136.611083984375	267.4517822265625	506.5184020996094	1365.80322265625	293.5296630859375	647.4072875976562	1285.839599609375	353.0926513671875	427.5084533691406	1243.184326171875	350.6820678710938	519.1434936523438	1314.229370117188	201.7440490722656	636.9397583007812	1358.779418945312	175.8686676025391	653.9451293945312	1235.566284179688	111.2630081176758	677.6768798828125	1026.491577148438	87.32363128662109	581.619140625	1016.146850585938	110.809944152832	738.648681640625	839.6771240234375	159.6907653808594	693.3914184570312	802.9767456054688	85.50553894042969	694.6067504882812	943.5081176757812	91.63755798339844	741.8533935546875	682.731201171875	170.4013061523438	713.3824462890625	749.4437866210938	102.1430816650391	758.2427978515625	762.2352294921875	148.0924224853516	498.7694702148438	1356.763671875	451.7337036132812	460.2741088867188	1289.855102539062	497.7781677246094	444.863525390625	1022.300842285156	539.1416015625	412.5848999023438	1007.169128417969	482.8748168945312	545.7658081054688	816.9244384765625	549.3286743164062	457.427490234375	797.4564208984375	561.2962036132812	445.3628540039062	968.0237426757812	547.03076171875	542.8706665039062	657.4921264648438	547.2099609375	547.4603881835938	722.6985473632812	575.2186279296875	476.4998779296875	722.7131958007812	569.0714111328125	517.1119384765625	1527.535278320312	377.7940673828125	686.8351440429688	1572.549438476562	281.8061218261719	641.1343994140625	1585.570556640625	399.3988952636719	561.2838745117188	1506.723266601562	226.6242065429688	681.2340087890625	888.618896484375	157.8289947509766	468.3053283691406	862.5973510742188	472.8131408691406	593.197509765625	899.8609008789062	474.0763854980469	717.0396118164062	919.1679077148438	266.9667358398438	737.2406616210938	476.0354919433594	253.5985717773438	729.2957153320312	629.2882080078125	211.0101318359375	703.7376098632812	42.36602401733398	252.0719757080078	738.9814453125	320.3564147949219	251.2044372558594	840.30517578125	42.9891357421875	405.1072387695312	760.4007568359375	42.94937133789062	392.8197631835938	800.8363647460938	36.94375991821289	299.3201293945312	633.7561645507812	41.86590576171875	286.3662109375	444.5711364746094	481.9652709960938	428.6472778320312	479.8062438964844	731.5860595703125	479.6220397949219	191.1822052001953	135.7618865966797	304.9534606933594	391.8375244140625	349.2555541992188	396.9098815917969	347.9257507324219	35.62530899047852	333.5922546386719	322.2845153808594	62.89783477783203	276.0079650878906	263.1279907226562	60.30811309814453	352.4804382324219	171.8028259277344	164.3201293945312	243.7422180175781	
534	5.33	459.6328735351562	967.536376953125	313.6604614257812	525.703857421875	964.3199462890625	208.3432922363281	491.2042846679688	1034.0322265625	264.720947265625	683.9638061523438	1190.876953125	366.5404357910156	473.8766479492188	1137.206298828125	267.3205261230469	511.7404479980469	1366.460693359375	293.6771240234375	652.6068725585938	1286.634887695312	353.6601257324219	432.763916015625	1243.6279296875	350.46826171875	524.7540893554688	1315.029907226562	201.8683624267578	642.5760498046875	1359.80712890625	176.5340423583984	660.1304321289062	1236.693969726562	111.8728103637695	684.41015625	1027.6826171875	87.89036560058594	588.2613525390625	1017.138671875	110.8149566650391	745.2738647460938	840.9909057617188	160.3183441162109	700.4619750976562	803.9683227539062	86.04467010498047	701.483154296875	944.7434692382812	92.22692108154297	748.5119018554688	684.0816040039062	171.7524108886719	720.3889770507812	750.4722900390625	103.0386047363281	764.98486328125	763.4987182617188	149.1858825683594	503.5269470214844	1357.234985351562	451.8535461425781	464.9478454589844	1290.240356445312	497.7031555175781	449.7998352050781	1022.686218261719	539.038818359375	417.8530883789062	1007.387512207031	482.5873413085938	551.7216796875	817.9890747070312	550.1729125976562	463.4908142089844	797.8885498046875	561.5313110351562	450.4396362304688	968.3970947265625	546.98388671875	550.1910400390625	658.5753173828125	548.2625732421875	553.9521484375	723.8372802734375	576.2313232421875	483.2326965332031	723.31982421875	569.228759765625	521.7911376953125	1528.154663085938	378.0669555664062	691.508544921875	1573.455688476562	282.2329406738281	645.642822265625	1586.444702148438	399.776123046875	566.0679321289062	1507.282592773438	226.9965209960938	686.809814453125	889.0223388671875	157.8893890380859	473.8098449707031	863.5908813476562	472.8192749023438	598.7268676757812	900.861572265625	474.24462890625	722.7886352539062	919.6863403320312	267.2821960449219	740.3688354492188	475.7445678710938	253.4900817871094	733.66748046875	629.2385864257812	211.1204223632812	703.916748046875	42.29390716552734	252.0823669433594	741.07861328125	320.0319213867188	251.1663360595703	840.7012939453125	42.06356430053711	405.3233642578125	760.6873779296875	42.72130584716797	392.8135681152344	801.149169921875	36.52981185913086	299.3894958496094	633.9382934570312	41.99118423461914	286.3313293457031	452.5064086914062	482.2570190429688	432.3038024902344	485.7575378417969	732.6458129882812	480.3902587890625	194.8205413818359	140.1587982177734	307.7252502441406	398.7283630371094	350.4391479492188	400.72998046875	349.0287780761719	35.12172317504883	334.2416381835938	324.0211791992188	64.52793121337891	277.3853759765625	264.78857421875	61.94670867919922	353.8270568847656	176.1560821533203	170.0643768310547	247.0094146728516	
